<svg xmlns="http://www.w3.org/2000/svg" viewBox="0 0 600 600"><rect width="600" height="600" fill="#fffef8"/><ellipse cx="300" cy="170" rx="130" ry="95" fill="#f3f8e5" opacity="0.9"/><circle cx="210" cy="180" r="38" fill="#fff"/><circle cx="270" cy="140" r="42" fill="#eef7d8"/><circle cx="335" cy="150" r="44" fill="#fff"/><circle cx="390" cy="190" r="40" fill="#f6ffe7"/><circle cx="180" cy="240" r="34" fill="#f6ffe7"/><circle cx="250" cy="230" r="42" fill="#fff"/><circle cx="320" cy="225" r="42" fill="#fbfff4"/><circle cx="385" cy="245" r="34" fill="#f6ffe7"/><circle cx="220" cy="285" r="38" fill="#fff"/><circle cx="295" cy="290" r="46" fill="#fbfff3"/><circle cx="370" cy="300" r="38" fill="#f8ffef"/><path d="M200 305c40 40 160 40 200 0l45 110H155z" fill="#b88048"/><path d="M190 300h220l-18 26H208z" fill="#d7a56b"/><path d="M160 415h280l20 52H140z" fill="#976532"/><path d="M182 306l-30 90" stroke="#6e7f39" stroke-width="10" stroke-linecap="round"/><path d="M235 285l-18 110" stroke="#6e7f39" stroke-width="10" stroke-linecap="round"/><path d="M295 275l-2 120" stroke="#6e7f39" stroke-width="10" stroke-linecap="round"/><path d="M355 285l18 110" stroke="#6e7f39" stroke-width="10" stroke-linecap="round"/><path d="M415 305l32 90" stroke="#6e7f39" stroke-width="10" stroke-linecap="round"/></svg>