<svg xmlns="http://www.w3.org/2000/svg" viewBox="0 0 600 600"><rect width="600" height="600" fill="#fff7fb"/><ellipse cx="300" cy="180" rx="140" ry="100" fill="#ffe7f4"/><circle cx="215" cy="180" r="44" fill="#ffa7d0"/><circle cx="275" cy="140" r="40" fill="#ffcbeb"/><circle cx="335" cy="160" r="46" fill="#ff9ed0"/><circle cx="390" cy="205" r="38" fill="#ffd0ec"/><circle cx="185" cy="245" r="34" fill="#ffd8f0"/><circle cx="245" cy="235" r="40" fill="#ff9bc9"/><circle cx="320" cy="240" r="44" fill="#ffe0f2"/><circle cx="390" cy="250" r="36" fill="#ffb1da"/><circle cx="225" cy="295" r="38" fill="#fff"/><circle cx="300" cy="300" r="46" fill="#ffeaf6"/><circle cx="375" cy="312" r="38" fill="#fff"/><path d="M202 310c42 38 154 38 196 0l48 104H154z" fill="#7c5b4a"/><path d="M190 304h220l-16 24H206z" fill="#b58a72"/><path d="M160 412h280l18 48H142z" fill="#5b4135"/><path d="M185 310l-28 88" stroke="#7b8751" stroke-width="10" stroke-linecap="round"/><path d="M236 290l-16 108" stroke="#7b8751" stroke-width="10" stroke-linecap="round"/><path d="M298 278v122" stroke="#7b8751" stroke-width="10" stroke-linecap="round"/><path d="M356 288l18 106" stroke="#7b8751" stroke-width="10" stroke-linecap="round"/><path d="M414 308l28 88" stroke="#7b8751" stroke-width="10" stroke-linecap="round"/></svg>