<svg xmlns="http://www.w3.org/2000/svg" viewBox="0 0 600 600"><rect width="600" height="600" fill="#f5fbff"/><ellipse cx="300" cy="182" rx="145" ry="98" fill="#e0f7ff"/><circle cx="215" cy="180" r="42" fill="#fff4a8"/><circle cx="275" cy="140" r="42" fill="#dff7f9"/><circle cx="338" cy="158" r="46" fill="#fff58e"/><circle cx="394" cy="198" r="40" fill="#d9eefb"/><circle cx="184" cy="245" r="34" fill="#f8ffa8"/><circle cx="248" cy="234" r="40" fill="#fff"/><circle cx="320" cy="238" r="46" fill="#e9fbff"/><circle cx="394" cy="250" r="36" fill="#fff7a7"/><circle cx="225" cy="292" r="38" fill="#fff"/><circle cx="301" cy="300" r="46" fill="#f2fbff"/><circle cx="375" cy="310" r="38" fill="#fffbce"/><path d="M205 310c40 36 150 36 190 0l50 104H155z" fill="#9b7a57"/><path d="M190 302h220l-18 24H208z" fill="#d0b18c"/><path d="M162 414h276l18 48H144z" fill="#7f5e41"/><path d="M184 308l-30 88" stroke="#7c9442" stroke-width="10" stroke-linecap="round"/><path d="M236 290l-16 110" stroke="#7c9442" stroke-width="10" stroke-linecap="round"/><path d="M300 278v124" stroke="#7c9442" stroke-width="10" stroke-linecap="round"/><path d="M356 290l18 108" stroke="#7c9442" stroke-width="10" stroke-linecap="round"/><path d="M414 310l30 88" stroke="#7c9442" stroke-width="10" stroke-linecap="round"/></svg>