<svg xmlns="http://www.w3.org/2000/svg" viewBox="0 0 600 600"><rect width="600" height="600" fill="#fffaf0"/><ellipse cx="300" cy="178" rx="145" ry="100" fill="#fff4bf"/><circle cx="215" cy="178" r="44" fill="#ffd43b"/><circle cx="275" cy="140" r="40" fill="#fff28d"/><circle cx="335" cy="158" r="46" fill="#ffcf2f"/><circle cx="394" cy="198" r="40" fill="#ffe46b"/><circle cx="184" cy="245" r="34" fill="#ffe96f"/><circle cx="248" cy="234" r="40" fill="#fff"/><circle cx="320" cy="238" r="46" fill="#fef7b4"/><circle cx="394" cy="250" r="36" fill="#ffe56a"/><circle cx="225" cy="292" r="38" fill="#fff"/><circle cx="301" cy="300" r="46" fill="#fff8ce"/><circle cx="375" cy="310" r="38" fill="#fff"/><path d="M205 310c40 36 150 36 190 0l50 104H155z" fill="#8a5f37"/><path d="M190 302h220l-18 24H208z" fill="#d2a35f"/><path d="M162 414h276l18 48H144z" fill="#6e4626"/><path d="M184 308l-30 88" stroke="#6f8b3d" stroke-width="10" stroke-linecap="round"/><path d="M236 290l-16 110" stroke="#6f8b3d" stroke-width="10" stroke-linecap="round"/><path d="M300 278v124" stroke="#6f8b3d" stroke-width="10" stroke-linecap="round"/><path d="M356 290l18 108" stroke="#6f8b3d" stroke-width="10" stroke-linecap="round"/><path d="M414 310l30 88" stroke="#6f8b3d" stroke-width="10" stroke-linecap="round"/></svg>